<?xml version="1.0" encoding="UTF-8"?>
<svg xmlns="http://www.w3.org/2000/svg" xmlns:xlink="http://www.w3.org/1999/xlink" width="271pt" height="167pt" viewBox="0 0 271 167" version="1.1">
<defs>
<clipPath id="clip0">
  <rect width="271" height="167"/>
</clipPath>
</defs>
<g id="surface0" clip-path="url(#clip0)">
<path style="fill: none; stroke-width: 0.1; stroke-linecap: butt; stroke-linejoin: miter; stroke: rgb(100%,100%,100%); opacity: 1;stroke-miterlimit: 10;" d="M 0 0 L 271 0 L 271 167 L 0 167 L 0 0 Z M 0 0 " transform="matrix(1,0,0,1,0,0)"/>
<path style="stroke: none; fill-rule: nonzero; fill: rgb(100%,100%,100%); opacity: 1;" d="M 0 0 L 271 0 L 271 167 L 0 167 L 0 0 Z M 0 0 "/>
<path style="fill: none; stroke-width: 0.1; stroke-linecap: butt; stroke-linejoin: miter; stroke: rgb(0%,0%,0%); opacity: 1;stroke-miterlimit: 10;" d="M 40.721252 13.741653 C 50.063049 10.284653 60.19838 10.403 70.016403 10.517868 C 78.842072 10.750885 87.271088 15.46228 92.332275 22.655426 C 100.03714 33.30072 101.63974 46.99794 101.526886 59.78833 C 101.536209 62.712723 105.433426 62.796585 107.249847 64.312012 C 108.392471 66.323563 106.364182 67.861786 105.342346 69.378647 C 102.25795 72.674423 103.072113 77.523071 102.629639 81.647583 C 101.954956 92.017868 102.77153 102.375854 102.727768 112.73555 C 100.135818 120.526276 102.997086 128.560669 104.359604 136.284149 C 104.684082 140.541031 104.423798 144.821198 104.536926 149.08876 C 103.035797 142.078186 99.947311 135.542496 98.581863 128.505371 C 97.915115 125.285278 96.45433 122.324463 95.089081 119.360992 C 94.397079 119.587738 93.013092 120.041245 92.321106 120.26799 C 91.284515 126.043381 91.997375 131.977051 90.891357 137.724091 C 89.02121 143.682251 87.816681 149.844223 87.500198 156.08934 C 86.866089 155.966263 85.597855 155.720108 84.963745 155.597015 C 83.339127 148.732117 84.175797 141.097549 88.49707 135.350433 C 90.101227 130.935623 89.014771 125.935181 88.947266 121.314011 C 86.83757 121.644394 84.6875 121.869583 82.653427 122.543411 C 81.361557 123.765121 80.094864 125.075119 78.263641 125.411865 C 69.573334 127.977768 61.316971 132.816895 51.997375 132.529068 C 43.538391 132.837097 34.470383 130.851028 28.213715 124.8078 C 25.801682 122.327911 22.611023 119.796936 22.60318 116.01506 C 22.390259 110.043655 21.943436 103.574951 25.119186 98.226425 C 29.041458 91.348572 35.241013 86.144012 41.593369 81.588257 C 52.511108 73.842194 64.702728 67.287003 78.060013 65.141495 C 82.137253 64.395996 87.75705 63.529602 88.878357 58.739197 C 89.7715 52.537949 89.416092 45.961472 86.836594 40.176025 C 83.55632 32.488708 76.35463 27.251022 68.716507 24.393448 C 66.187286 23.543167 63.841705 21.822189 61.068726 21.98584 C 55.136078 21.968491 49.151505 21.963928 43.282242 22.906525 C 41.225021 24.262299 39.526764 26.185257 37.206238 27.123764 C 34.485138 28.202576 31.388123 27.937042 28.734177 26.790924 C 29.275604 23.435883 30.029434 19.942108 32.022583 17.122086 C 34.180969 14.576218 37.835876 14.859055 40.721252 13.741653 Z M 40.721252 13.741653 " transform="matrix(1,0,0,1,0,0)"/>
<path style="stroke: none; fill-rule: nonzero; fill: rgb(0%,0%,0%); opacity: 1;" d="M 40.721252 13.741653 C 50.063049 10.284653 60.19838 10.403 70.016403 10.517868 C 78.842072 10.750885 87.271088 15.46228 92.332275 22.655426 C 100.03714 33.30072 101.63974 46.99794 101.526886 59.78833 C 101.536209 62.712723 105.433426 62.796585 107.249847 64.312012 C 108.392471 66.323563 106.364182 67.861786 105.342346 69.378647 C 102.25795 72.674423 103.072113 77.523071 102.629639 81.647583 C 101.954956 92.017868 102.77153 102.375854 102.727768 112.73555 C 100.135818 120.526276 102.997086 128.560669 104.359604 136.284149 C 104.684082 140.541031 104.423798 144.821198 104.536926 149.08876 C 103.035797 142.078186 99.947311 135.542496 98.581863 128.505371 C 97.915115 125.285278 96.45433 122.324463 95.089081 119.360992 C 94.397079 119.587738 93.013092 120.041245 92.321106 120.26799 C 91.284515 126.043381 91.997375 131.977051 90.891357 137.724091 C 89.02121 143.682251 87.816681 149.844223 87.500198 156.08934 C 86.866089 155.966263 85.597855 155.720108 84.963745 155.597015 C 83.339127 148.732117 84.175797 141.097549 88.49707 135.350433 C 90.101227 130.935623 89.014771 125.935181 88.947266 121.314011 C 86.83757 121.644394 84.6875 121.869583 82.653427 122.543411 C 81.361557 123.765121 80.094864 125.075119 78.263641 125.411865 C 69.573334 127.977768 61.316971 132.816895 51.997375 132.529068 C 43.538391 132.837097 34.470383 130.851028 28.213715 124.8078 C 25.801682 122.327911 22.611023 119.796936 22.60318 116.01506 C 22.390259 110.043655 21.943436 103.574951 25.119186 98.226425 C 29.041458 91.348572 35.241013 86.144012 41.593369 81.588257 C 52.511108 73.842194 64.702728 67.287003 78.060013 65.141495 C 82.137253 64.395996 87.75705 63.529602 88.878357 58.739197 C 89.7715 52.537949 89.416092 45.961472 86.836594 40.176025 C 83.55632 32.488708 76.35463 27.251022 68.716507 24.393448 C 66.187286 23.543167 63.841705 21.822189 61.068726 21.98584 C 55.136078 21.968491 49.151505 21.963928 43.282242 22.906525 C 41.225021 24.262299 39.526764 26.185257 37.206238 27.123764 C 34.485138 28.202576 31.388123 27.937042 28.734177 26.790924 C 29.275604 23.435883 30.029434 19.942108 32.022583 17.122086 C 34.180969 14.576218 37.835876 14.859055 40.721252 13.741653 Z M 40.721252 13.741653 "/>
<path style="fill: none; stroke-width: 0.1; stroke-linecap: butt; stroke-linejoin: miter; stroke: rgb(100%,100%,100%); opacity: 1;stroke-miterlimit: 10;" d="M 72.395538 74.527039 C 77.409485 74.124359 83.791138 73.192307 87.304321 77.720016 C 91.146332 83.805588 92.317032 91.835541 89.513016 98.574768 C 87.904755 103.255371 84.362228 106.950439 82.850479 111.670074 C 77.607544 117.7005 69.633926 120.437912 62.007187 122.022659 C 53.152695 123.244827 43.662598 120.019058 37.574036 113.430664 C 33.176483 108.732162 32.430969 101.176376 35.733704 95.672638 C 39.100861 89.859024 44.767273 85.858551 50.418747 82.472321 C 52.656998 80.997238 55.600159 81.405624 57.744812 79.724182 C 62.130173 76.84642 67.204742 75.160522 72.395538 74.527039 Z M 72.395538 74.527039 " transform="matrix(1,0,0,1,0,0)"/>
<path style="stroke: none; fill-rule: nonzero; fill: rgb(100%,100%,100%); opacity: 1;" d="M 72.395538 74.527039 C 77.409485 74.124359 83.791138 73.192307 87.304321 77.720016 C 91.146332 83.805588 92.317032 91.835541 89.513016 98.574768 C 87.904755 103.255371 84.362228 106.950439 82.850479 111.670074 C 77.607544 117.7005 69.633926 120.437912 62.007187 122.022659 C 53.152695 123.244827 43.662598 120.019058 37.574036 113.430664 C 33.176483 108.732162 32.430969 101.176376 35.733704 95.672638 C 39.100861 89.859024 44.767273 85.858551 50.418747 82.472321 C 52.656998 80.997238 55.600159 81.405624 57.744812 79.724182 C 62.130173 76.84642 67.204742 75.160522 72.395538 74.527039 Z M 72.395538 74.527039 "/>
<path style="fill: none; stroke-width: 0.1; stroke-linecap: butt; stroke-linejoin: miter; stroke: rgb(0%,0%,0%); opacity: 1;stroke-miterlimit: 10;" d="M 228.842285 81.850555 C 231.960999 79.621567 236.06868 77.072662 239.974213 78.852036 C 240.99324 79.997101 240.466492 81.513138 240.331955 82.856812 C 236.059525 81.824356 231.752533 83.770721 228.964279 87.003387 C 230.723465 91.797821 236.63176 91.890015 239.612656 95.530716 C 241.206802 97.619415 240.386642 100.937683 238.192825 102.266785 C 233.804001 105.091522 228.331696 106.085236 223.204819 105.167694 C 223.10878 104.274658 222.916687 102.488586 222.820648 101.595551 C 227.646637 101.395111 232.897797 102.099792 236.987076 98.870804 C 233.981934 95.348297 229.043396 94.443085 225.956268 91.051712 C 224.016068 87.899734 226.135025 83.83902 228.842285 81.850555 Z M 228.842285 81.850555 " transform="matrix(1,0,0,1,0,0)"/>
<path style="stroke: none; fill-rule: nonzero; fill: rgb(0%,0%,0%); opacity: 1;" d="M 228.842285 81.850555 C 231.960999 79.621567 236.06868 77.072662 239.974213 78.852036 C 240.99324 79.997101 240.466492 81.513138 240.331955 82.856812 C 236.059525 81.824356 231.752533 83.770721 228.964279 87.003387 C 230.723465 91.797821 236.63176 91.890015 239.612656 95.530716 C 241.206802 97.619415 240.386642 100.937683 238.192825 102.266785 C 233.804001 105.091522 228.331696 106.085236 223.204819 105.167694 C 223.10878 104.274658 222.916687 102.488586 222.820648 101.595551 C 227.646637 101.395111 232.897797 102.099792 236.987076 98.870804 C 233.981934 95.348297 229.043396 94.443085 225.956268 91.051712 C 224.016068 87.899734 226.135025 83.83902 228.842285 81.850555 Z M 228.842285 81.850555 "/>
<path style="fill: none; stroke-width: 0.1; stroke-linecap: butt; stroke-linejoin: miter; stroke: rgb(0%,0%,0%); opacity: 1;stroke-miterlimit: 10;" d="M 108.777878 85.819489 C 111.59552 82.327042 115.296799 78.940811 119.963989 78.48671 C 122.979889 78.100662 124.182632 81.720398 126.331665 83.245728 C 126.366043 83.680023 126.434784 84.548615 126.469162 84.982925 C 124.659866 94.383865 122.08667 103.713974 121.569 113.319458 C 121.357986 114.739334 121.717178 116.377838 120.815964 117.610794 C 119.64534 117.85408 118.460602 117.961853 117.26178 117.934097 C 116.117188 111.013321 119.187546 104.247467 120.114624 97.43959 C 116.669083 100.473587 113.077881 104.485474 108.068924 104.287735 C 105.73349 104.324188 104.180481 101.991776 103.860825 99.901108 C 103.031662 94.719833 105.686798 89.772934 108.777878 85.819489 Z M 108.777878 85.819489 " transform="matrix(1,0,0,1,0,0)"/>
<path style="stroke: none; fill-rule: nonzero; fill: rgb(0%,0%,0%); opacity: 1;" d="M 108.777878 85.819489 C 111.59552 82.327042 115.296799 78.940811 119.963989 78.48671 C 122.979889 78.100662 124.182632 81.720398 126.331665 83.245728 C 126.366043 83.680023 126.434784 84.548615 126.469162 84.982925 C 124.659866 94.383865 122.08667 103.713974 121.569 113.319458 C 121.357986 114.739334 121.717178 116.377838 120.815964 117.610794 C 119.64534 117.85408 118.460602 117.961853 117.26178 117.934097 C 116.117188 111.013321 119.187546 104.247467 120.114624 97.43959 C 116.669083 100.473587 113.077881 104.485474 108.068924 104.287735 C 105.73349 104.324188 104.180481 101.991776 103.860825 99.901108 C 103.031662 94.719833 105.686798 89.772934 108.777878 85.819489 Z M 108.777878 85.819489 "/>
<path style="fill: none; stroke-width: 0.1; stroke-linecap: butt; stroke-linejoin: miter; stroke: rgb(0%,0%,0%); opacity: 1;stroke-miterlimit: 10;" d="M 161.927109 80.881149 C 164.090988 79.44632 166.984146 78.319473 169.529343 79.353348 C 172.440811 80.874283 171.83934 84.925919 170.259567 87.216965 C 167.125885 91.737396 161.810898 93.869934 157.627151 97.214462 C 158.400635 99.515274 160.131805 101.954834 162.929108 101.164368 C 167.696762 101.193115 169.965546 95.82373 174.367844 95.373978 C 172.922623 101.554733 166.172516 105.752548 160.008896 105.209839 C 156.742447 105.033844 154.154327 102.138779 153.848404 98.972748 C 153.042694 92.058075 156.549026 85.11142 161.927109 80.881149 Z M 161.927109 80.881149 " transform="matrix(1,0,0,1,0,0)"/>
<path style="stroke: none; fill-rule: nonzero; fill: rgb(0%,0%,0%); opacity: 1;" d="M 161.927109 80.881149 C 164.090988 79.44632 166.984146 78.319473 169.529343 79.353348 C 172.440811 80.874283 171.83934 84.925919 170.259567 87.216965 C 167.125885 91.737396 161.810898 93.869934 157.627151 97.214462 C 158.400635 99.515274 160.131805 101.954834 162.929108 101.164368 C 167.696762 101.193115 169.965546 95.82373 174.367844 95.373978 C 172.922623 101.554733 166.172516 105.752548 160.008896 105.209839 C 156.742447 105.033844 154.154327 102.138779 153.848404 98.972748 C 153.042694 92.058075 156.549026 85.11142 161.927109 80.881149 Z M 161.927109 80.881149 "/>
<path style="fill: none; stroke-width: 0.1; stroke-linecap: butt; stroke-linejoin: miter; stroke: rgb(0%,0%,0%); opacity: 1;stroke-miterlimit: 10;" d="M 185.409439 80.471558 C 189.217117 79.043137 194.01445 80.308823 195.795837 84.185364 C 199.150955 90.79216 195.269882 98.662521 189.723587 102.723953 C 186.456604 105.350876 180.959869 106.650131 177.78566 103.21019 C 174.525574 99.880035 175.25827 94.655289 176.676697 90.64682 C 178.326416 86.461288 181.104706 82.244339 185.409439 80.471558 Z M 185.409439 80.471558 " transform="matrix(1,0,0,1,0,0)"/>
<path style="stroke: none; fill-rule: nonzero; fill: rgb(0%,0%,0%); opacity: 1;" d="M 185.409439 80.471558 C 189.217117 79.043137 194.01445 80.308823 195.795837 84.185364 C 199.150955 90.79216 195.269882 98.662521 189.723587 102.723953 C 186.456604 105.350876 180.959869 106.650131 177.78566 103.21019 C 174.525574 99.880035 175.25827 94.655289 176.676697 90.64682 C 178.326416 86.461288 181.104706 82.244339 185.409439 80.471558 Z M 185.409439 80.471558 "/>
<path style="fill: none; stroke-width: 0.1; stroke-linecap: butt; stroke-linejoin: miter; stroke: rgb(0%,0%,0%); opacity: 1;stroke-miterlimit: 10;" d="M 131.380096 82.415634 C 131.725677 79.882477 136.09993 80.200745 135.557709 83.00267 C 134.492096 88.784698 131.277969 94.393967 132.87059 100.463913 C 138.206497 99.864014 141.214966 94.737289 143.444183 90.416687 C 145.165543 87.255341 145.394592 82.890808 149.249084 81.446335 C 150.86618 84.7229 148.759857 88.084457 148.555664 91.434189 C 147.734146 95.814728 148.500809 100.398666 151.158234 104.027466 C 149.75943 104.48645 148.351074 104.911865 146.935303 105.304367 C 144.915237 102.196594 144.534378 98.50383 144.668243 94.885925 C 142.125244 98.61026 139.371368 102.802994 134.887955 104.30658 C 131.995544 105.368423 129.253494 102.657883 128.874207 99.930542 C 128.131775 93.96524 130.394363 88.217865 131.380096 82.415634 Z M 131.380096 82.415634 " transform="matrix(1,0,0,1,0,0)"/>
<path style="stroke: none; fill-rule: nonzero; fill: rgb(0%,0%,0%); opacity: 1;" d="M 131.380096 82.415634 C 131.725677 79.882477 136.09993 80.200745 135.557709 83.00267 C 134.492096 88.784698 131.277969 94.393967 132.87059 100.463913 C 138.206497 99.864014 141.214966 94.737289 143.444183 90.416687 C 145.165543 87.255341 145.394592 82.890808 149.249084 81.446335 C 150.86618 84.7229 148.759857 88.084457 148.555664 91.434189 C 147.734146 95.814728 148.500809 100.398666 151.158234 104.027466 C 149.75943 104.48645 148.351074 104.911865 146.935303 105.304367 C 144.915237 102.196594 144.534378 98.50383 144.668243 94.885925 C 142.125244 98.61026 139.371368 102.802994 134.887955 104.30658 C 131.995544 105.368423 129.253494 102.657883 128.874207 99.930542 C 128.131775 93.96524 130.394363 88.217865 131.380096 82.415634 Z M 131.380096 82.415634 "/>
<path style="fill: none; stroke-width: 0.1; stroke-linecap: butt; stroke-linejoin: miter; stroke: rgb(0%,0%,0%); opacity: 1;stroke-miterlimit: 10;" d="M 202.200287 82.307953 C 202.402359 80.570068 204.697845 80.216934 205.944687 81.132797 C 207.031311 83.120117 205.948212 85.260818 205.367752 87.216629 C 203.833908 91.453629 202.489716 96.080429 203.889969 100.552628 C 211.22551 98.79985 214.24913 90.855225 216.712845 84.545547 C 217.061249 82.820969 218.921158 81.520111 220.598465 82.437164 C 221.226715 84.33371 220.314606 86.225662 219.986725 88.084229 C 218.737045 93.419388 218.585419 99.353989 221.902817 104.010559 C 220.604721 104.47966 219.297394 104.913956 217.98082 105.313461 C 215.625061 102.366348 215.34729 98.568848 215.489365 94.946472 C 212.797775 98.797455 209.8936 103.326355 204.994507 104.433884 C 201.945557 105.041367 199.727234 101.717239 199.549591 99.015045 C 199.185211 93.317062 201.332962 87.872513 202.200287 82.307953 Z M 202.200287 82.307953 " transform="matrix(1,0,0,1,0,0)"/>
<path style="stroke: none; fill-rule: nonzero; fill: rgb(0%,0%,0%); opacity: 1;" d="M 202.200287 82.307953 C 202.402359 80.570068 204.697845 80.216934 205.944687 81.132797 C 207.031311 83.120117 205.948212 85.260818 205.367752 87.216629 C 203.833908 91.453629 202.489716 96.080429 203.889969 100.552628 C 211.22551 98.79985 214.24913 90.855225 216.712845 84.545547 C 217.061249 82.820969 218.921158 81.520111 220.598465 82.437164 C 221.226715 84.33371 220.314606 86.225662 219.986725 88.084229 C 218.737045 93.419388 218.585419 99.353989 221.902817 104.010559 C 220.604721 104.47966 219.297394 104.913956 217.98082 105.313461 C 215.625061 102.366348 215.34729 98.568848 215.489365 94.946472 C 212.797775 98.797455 209.8936 103.326355 204.994507 104.433884 C 201.945557 105.041367 199.727234 101.717239 199.549591 99.015045 C 199.185211 93.317062 201.332962 87.872513 202.200287 82.307953 Z M 202.200287 82.307953 "/>
<path style="fill: none; stroke-width: 0.1; stroke-linecap: butt; stroke-linejoin: miter; stroke: rgb(100%,100%,100%); opacity: 1;stroke-miterlimit: 10;" d="M 114.849487 84.889206 C 116.522629 83.182465 118.851532 82.595123 121.180634 82.642853 C 123.231583 86.972534 120.694687 91.553482 117.809372 94.785446 C 115.21994 97.572632 112.042816 100.7854 107.876846 100.213089 C 106.864685 94.187927 110.716675 88.812607 114.849487 84.889206 Z M 114.849487 84.889206 " transform="matrix(1,0,0,1,0,0)"/>
<path style="stroke: none; fill-rule: nonzero; fill: rgb(100%,100%,100%); opacity: 1;" d="M 114.849487 84.889206 C 116.522629 83.182465 118.851532 82.595123 121.180634 82.642853 C 123.231583 86.972534 120.694687 91.553482 117.809372 94.785446 C 115.21994 97.572632 112.042816 100.7854 107.876846 100.213089 C 106.864685 94.187927 110.716675 88.812607 114.849487 84.889206 Z M 114.849487 84.889206 "/>
<path style="fill: none; stroke-width: 0.1; stroke-linecap: butt; stroke-linejoin: miter; stroke: rgb(100%,100%,100%); opacity: 1;stroke-miterlimit: 10;" d="M 158.413528 92.511475 C 159.825577 88.223785 162.371292 83.257111 167.3405 82.540771 C 167.707382 87.725723 162.042709 90.094772 158.413528 92.511475 Z M 158.413528 92.511475 " transform="matrix(1,0,0,1,0,0)"/>
<path style="stroke: none; fill-rule: nonzero; fill: rgb(100%,100%,100%); opacity: 1;" d="M 158.413528 92.511475 C 159.825577 88.223785 162.371292 83.257111 167.3405 82.540771 C 167.707382 87.725723 162.042709 90.094772 158.413528 92.511475 Z M 158.413528 92.511475 "/>
<path style="fill: none; stroke-width: 0.1; stroke-linecap: butt; stroke-linejoin: miter; stroke: rgb(100%,100%,100%); opacity: 1;stroke-miterlimit: 10;" d="M 186.351471 84.157303 C 188.870056 82.877029 192.181351 84.648361 192.680389 87.393875 C 194.168121 93.116684 190.027954 99.104904 184.817963 101.19278 C 181.652924 102.71286 179.214615 98.8349 179.724136 96.022644 C 180.159668 91.502243 182.192657 86.438202 186.351471 84.157303 Z M 186.351471 84.157303 " transform="matrix(1,0,0,1,0,0)"/>
<path style="stroke: none; fill-rule: nonzero; fill: rgb(100%,100%,100%); opacity: 1;" d="M 186.351471 84.157303 C 188.870056 82.877029 192.181351 84.648361 192.680389 87.393875 C 194.168121 93.116684 190.027954 99.104904 184.817963 101.19278 C 181.652924 102.71286 179.214615 98.8349 179.724136 96.022644 C 180.159668 91.502243 182.192657 86.438202 186.351471 84.157303 Z M 186.351471 84.157303 "/>
<path style="fill: none; stroke-width: 0.1; stroke-linecap: butt; stroke-linejoin: miter; stroke: rgb(0%,12.54902%,62.352943%); opacity: 1;stroke-miterlimit: 10;" d="M 58.458496 88.661484 C 67.000549 86.108887 78.360138 90.719193 79.834595 100.201889 C 81.256332 108.692963 72.998032 115.645294 65.048416 115.91925 C 57.336182 116.754822 48.368027 111.954086 47.165054 103.797577 C 45.921707 96.658051 51.839447 90.262955 58.458496 88.661484 Z M 58.458496 88.661484 " transform="matrix(1,0,0,1,0,0)"/>
<path style="stroke: none; fill-rule: nonzero; fill: rgb(0%,12.54902%,62.352943%); opacity: 1;" d="M 58.458496 88.661484 C 67.000549 86.108887 78.360138 90.719193 79.834595 100.201889 C 81.256332 108.692963 72.998032 115.645294 65.048416 115.91925 C 57.336182 116.754822 48.368027 111.954086 47.165054 103.797577 C 45.921707 96.658051 51.839447 90.262955 58.458496 88.661484 Z M 58.458496 88.661484 "/>
<path style="fill: none; stroke-width: 0.1; stroke-linecap: butt; stroke-linejoin: miter; stroke: rgb(97.647065%,87.05883%,0%); opacity: 1;stroke-miterlimit: 10;" d="M 92.321106 120.26799 C 93.013092 120.041245 94.397079 119.587738 95.089081 119.360992 C 96.45433 122.324463 97.915115 125.285278 98.581863 128.505371 C 99.947311 135.542496 103.035797 142.078186 104.536926 149.08876 C 101.059448 152.118973 97.805481 155.688477 93.442596 157.440918 C 91.335251 158.431656 89.247513 157.205231 87.500198 156.08934 C 87.816681 149.844223 89.02121 143.682251 90.891357 137.724091 C 91.997375 131.977051 91.284515 126.043381 92.321106 120.26799 Z M 92.321106 120.26799 " transform="matrix(1,0,0,1,0,0)"/>
<path style="stroke: none; fill-rule: nonzero; fill: rgb(97.647065%,87.05883%,0%); opacity: 1;" d="M 92.321106 120.26799 C 93.013092 120.041245 94.397079 119.587738 95.089081 119.360992 C 96.45433 122.324463 97.915115 125.285278 98.581863 128.505371 C 99.947311 135.542496 103.035797 142.078186 104.536926 149.08876 C 101.059448 152.118973 97.805481 155.688477 93.442596 157.440918 C 91.335251 158.431656 89.247513 157.205231 87.500198 156.08934 C 87.816681 149.844223 89.02121 143.682251 90.891357 137.724091 C 91.997375 131.977051 91.284515 126.043381 92.321106 120.26799 Z M 92.321106 120.26799 "/>
</g>
</svg>
